<svg width="793" height="360" viewBox="0 0 793 360" fill="none" xmlns="http://www.w3.org/2000/svg">
<path d="M442.429 131.853L479.686 172.773V142.083H544.886C555.131 142.083 563.514 151.29 563.514 162.543C563.514 173.796 555.131 183.003 544.886 183.003H479.686C459.101 183.003 442.429 201.315 442.429 223.923C442.429 246.532 459.101 264.843 479.686 264.843H544.886V295.533L582.143 254.613L544.886 213.693V244.383H479.686C469.44 244.383 461.057 235.176 461.057 223.923C461.057 212.67 469.44 203.463 479.686 203.463H544.886C565.47 203.463 582.143 185.152 582.143 162.543C582.143 139.935 565.47 121.623 544.886 121.623H479.686V90.9333L442.429 131.853Z" fill="#9C27B0"/>
<path d="M207 79.1V296H186.3C183.1 296 180.4 295.5 178.2 294.5C176.1 293.4 174.05 291.6 172.05 289.1L58.8 144.5C59.4 151.1 59.7 157.2 59.7 162.8V296H24.15V79.1H45.3C47 79.1 48.45 79.2 49.65 79.4C50.95 79.5 52.05 79.8 52.95 80.3C53.95 80.7 54.9 81.35 55.8 82.25C56.7 83.05 57.7 84.15 58.8 85.55L172.5 230.75C172.2 227.25 171.95 223.8 171.75 220.4C171.55 217 171.45 213.85 171.45 210.95V79.1H207ZM295.802 111.2V175.4H377.102V207.65H295.802V296H255.302V79.1H392.102V111.2H295.802Z" fill="black"/>
<path d="M788.248 112.25H722.848V296H682.498V112.25H617.098V79.1H788.248V112.25Z" fill="#9C27B0"/>
</svg>
